<?xml version="1.0" standalone="no"?>
<!DOCTYPE svg PUBLIC "-//W3C//DTD SVG 20010904//EN"
 "http://www.w3.org/TR/2001/REC-SVG-20010904/DTD/svg10.dtd">
<svg version="1.0" xmlns="http://www.w3.org/2000/svg"
 width="500.000000pt" height="500.000000pt" viewBox="0 0 500.000000 500.000000"
 preserveAspectRatio="xMidYMid meet">

<g transform="translate(0.000000,500.000000) scale(0.100000,-0.100000)"
fill="#000000" stroke="none">
<path d="M613 3430 c-160 -24 -275 -113 -335 -260 l-23 -55 0 -695 0 -695 24
-55 c55 -124 140 -203 260 -241 60 -18 97 -19 725 -19 717 0 709 -1 809 55 64
36 133 114 170 193 l32 67 0 690 c0 639 -1 694 -18 742 -28 78 -91 160 -160
204 -117 76 -87 73 -797 75 -349 1 -658 -2 -687 -6z m1227 -1010 l0 -580 -580
0 -580 0 0 580 0 580 580 0 580 0 0 -580z"/>
<path d="M2897 3029 c-144 -35 -263 -154 -302 -304 -22 -86 -22 -909 0 -1003
28 -120 108 -218 224 -275 l66 -32 525 0 525 0 67 33 c117 57 204 171 227 296
14 77 15 883 1 957 -25 132 -112 242 -238 302 l-67 32 -495 2 c-272 1 -512 -3
-533 -8z m913 -809 l0 -390 -400 0 -400 0 0 390 0 390 400 0 400 0 0 -390z"/>
<path d="M4550 1620 l0 -210 210 0 210 0 0 210 0 210 -210 0 -210 0 0 -210z"/>
</g>
</svg>
